<svg id="Layer_1" enable-background="new 0 0 104 104" height="100" viewBox="0 0 104 104" width="100" xmlns="http://www.w3.org/2000/svg"><g><g><g><g><path d="m23.55 76.75-11.15 3.86-5.82-5.53 11.12-3.04c.14-.04.29-.05.43-.03l4.1.57 1.54 3.66c.09.2-.01.43-.22.51z" fill="#ffca08"/><path d="m22.24 72.58-8.41 3.34c-.73.3-1.18 1.01-1.13 1.79.06.81.08 1.63.01 2.46-.48-1.11-1.69-4.08-1.69-4.08-1.3-.16-2.96-.53-4.29-1.03 1.64-.19 3.23-.12 4.81.09.22.03.43.02.65-.03z" fill="#fa9c1e"/><path d="m12.3 80.6-7.98-.99c-.27-.03-.41-.33-.28-.55l2.33-3.81c.08-.12.22-.2.36-.18l4.97.62c.16.02.3.15.32.31l.69 4.18c.04.24-.15.45-.41.42z" fill="#ffca08"/><path d="m12.31 80.59-7.98-.99c-.27-.03-.41-.33-.28-.55l2.33-3.81c.08-.12.22-.2.36-.18-1.2 2.62-.22 4.62 5.98 5.11.04.25-.16.46-.41.42z" fill="#fa9c1e"/></g></g><g><g><path d="m26.28 71.12-11.15 3.86-5.82-5.53 11.12-3.04c.14-.04.29-.05.43-.03l4.1.57 1.54 3.66c.1.2-.01.44-.22.51z" fill="#ffca08"/><path d="m24.98 66.95-8.41 3.34c-.73.3-1.18 1.01-1.13 1.79.06.81.08 1.63.01 2.46-.48-1.11-1.69-4.08-1.69-4.08-1.3-.16-2.96-.53-4.29-1.03 1.64-.19 3.23-.12 4.81.09.22.03.43.02.65-.03z" fill="#fa9c1e"/><path d="m15.04 74.97-7.98-.99c-.27-.03-.41-.33-.28-.55l2.33-3.81c.08-.12.22-.2.36-.18l4.97.62c.16.02.3.15.32.31l.69 4.18c.04.25-.16.46-.41.42z" fill="#ffca08"/><path d="m15.04 74.97-7.98-.99c-.27-.03-.41-.33-.28-.55l2.33-3.81c.08-.12.22-.2.36-.18-1.2 2.62-.22 4.62 5.98 5.11.04.24-.16.45-.41.42z" fill="#fa9c1e"/></g></g><g><g><path d="m33.45 76.41-11.15 3.87-5.82-5.53 11.12-3.04c.14-.04.29-.05.43-.03l4.1.57 1.54 3.66c.1.19-.01.43-.22.5z" fill="#ffca08"/><path d="m32.14 72.25-8.41 3.34c-.73.3-1.18 1.01-1.13 1.79.06.81.08 1.63.01 2.46-.48-1.11-1.69-4.08-1.69-4.08-1.3-.16-2.96-.53-4.29-1.03 1.64-.19 3.23-.12 4.81.09.22.03.43.02.65-.03z" fill="#fa9c1e"/><path d="m22.21 80.27-7.98-.99c-.27-.03-.41-.33-.28-.55l2.33-3.81c.08-.12.22-.2.36-.18l4.97.62c.16.02.3.15.32.31l.69 4.18c.04.24-.16.45-.41.42z" fill="#ffca08"/><path d="m22.21 80.26-7.98-.99c-.27-.03-.41-.33-.28-.55l2.33-3.81c.08-.12.22-.2.36-.18-1.2 2.62-.22 4.62 5.98 5.11.04.24-.16.45-.41.42z" fill="#fa9c1e"/></g></g><g><g><path d="m37.37 71.12-11.15 3.86-5.82-5.53 11.12-3.04c.14-.04.29-.05.43-.03l4.1.57 1.54 3.66c.09.2-.01.44-.22.51z" fill="#ffca08"/><path d="m36.06 66.95-8.41 3.34c-.73.3-1.18 1.01-1.13 1.79.06.81.08 1.63.01 2.46-.48-1.11-1.69-4.08-1.69-4.08-1.3-.16-2.96-.53-4.29-1.03 1.64-.19 3.23-.12 4.81.09.22.03.43.02.65-.03z" fill="#fa9c1e"/><path d="m26.12 74.97-7.98-.99c-.27-.03-.41-.33-.28-.55l2.33-3.81c.08-.12.22-.2.36-.18l4.97.62c.16.02.3.15.32.31l.69 4.18c.04.25-.15.46-.41.42z" fill="#ffca08"/><path d="m26.13 74.97-7.98-.99c-.27-.03-.41-.33-.28-.55l2.33-3.81c.08-.12.22-.2.36-.18-1.2 2.62-.22 4.62 5.98 5.11.04.24-.16.45-.41.42z" fill="#fa9c1e"/></g></g><g><g><path d="m32.27 65.9-11.15 3.86-5.82-5.53 11.12-3.04c.14-.04.29-.05.43-.03l4.1.57 1.54 3.66c.09.2-.01.44-.22.51z" fill="#ffca08"/><path d="m30.96 61.73-8.41 3.34c-.73.3-1.18 1.01-1.13 1.79.06.81.08 1.63.01 2.46-.48-1.11-1.69-4.08-1.69-4.08-1.3-.16-2.96-.53-4.29-1.03 1.64-.19 3.23-.12 4.81.09.22.03.43.02.65-.03z" fill="#fa9c1e"/><path d="m21.02 69.75-7.98-.99c-.27-.03-.41-.33-.28-.55l2.33-3.81c.08-.12.22-.2.36-.18l4.97.62c.16.02.3.15.32.31l.69 4.18c.04.24-.15.45-.41.42z" fill="#ffca08"/><path d="m21.03 69.75-7.98-.99c-.27-.03-.41-.33-.28-.55l2.33-3.81c.08-.12.22-.2.36-.18-1.2 2.62-.22 4.62 5.98 5.11.04.24-.16.45-.41.42z" fill="#fa9c1e"/></g></g></g><g><path d="m44.49 39.31-18.18 7.63-9.25.5 27.12-10.41z" fill="#f99c38"/><g><g fill="#f99c38"><path d="m94.23 43.22-7.46 1.31-42.28-5.22-.31-2.28z"/><path d="m99.21 36.03c-.64 3.35-2.35 6.15-5.04 7.34l-50.06-6.19-21.12-16.29c5.17-5.81 12.31-9.25 23.34-8.01l39.07 4.93c8.91 1.13 15.5 9.41 13.81 18.22z"/><path d="m94.18 43.36-50.07-6.18-21.11-16.28 7.91 3.31 14.08 10.85 40.4 4.99z"/></g><path d="m45.86 32.93-15.98-12.33c3.38-2.4 7.32-3.54 12.12-3.54 1.22 0 2.51.08 3.83.23l39.02 4.92c3.24.41 6.19 2.16 8.11 4.8 1.76 2.43 2.44 5.34 1.89 8.18-.3 1.57-.91 2.84-1.69 3.58z" fill="#bc465a"/><path d="m51.04 25.36c-1.95-2.02-3.16-4.77-3.16-7.81l-2.05-.26c-1.32-.15-2.61-.23-3.83-.23-4.8 0-8.74 1.14-12.12 3.54l2.81 2.17c6.22.15 12.29 1.3 18.35 2.59z" fill="#a53d4c"/><path d="m99.21 36.03c-.64 3.35-2.78 7.6-7.43 8.57l-21.88-15.14c8.13-18.52 31.93-12.81 29.31 6.57z" fill="#f99c38"/><path d="m75.73 28.09c2.45-3.49 5.88-5.49 9.62-5.49 2.78 0 5.38 1.15 7.13 3.16 2.04 2.34 2.85 5.63 2.35 9.54-.19.91-.81 3.14-2.46 4.3z" fill="#bc465a"/><path d="m89.71 31.2c-1.56-1.33-2.75-3.01-3.45-4.94-.43-1.17-.66-2.4-.83-3.65-.03 0-.06 0-.08 0-3.74 0-7.17 2-9.62 5.49l16.64 11.5c1.66-1.16 2.27-3.38 2.46-4.3.02-.19.03-.37.05-.56-1.84-.98-3.57-2.19-5.17-3.54z" fill="#a53d4c"/><path d="m44.99 35.05-14.08-10.85 38.99 5.26 15.49 10.59z" fill="#bc465a"/><path d="m26.32 46.95 18.17-7.64 42.29 5.23-18.73 9.55z" fill="#bc465a"/><g><g><path d="m87.16 47.12-11.15 3.86-5.82-5.53 11.12-3.04c.14-.04.29-.05.43-.03l4.1.57 1.54 3.66c.1.2-.01.43-.22.51z" fill="#ffca08"/><path d="m85.86 42.95-8.41 3.34c-.73.3-1.18 1.01-1.13 1.79.06.81.08 1.63.01 2.46-.48-1.11-1.69-4.08-1.69-4.08-1.3-.16-2.96-.53-4.29-1.03 1.64-.19 3.23-.12 4.81.09.22.03.43.02.65-.03z" fill="#fa9c1e"/><path d="m75.92 50.97-7.98-.99c-.27-.03-.41-.33-.28-.55l2.33-3.81c.08-.12.22-.2.36-.18l4.97.62c.16.02.3.15.32.31l.69 4.18c.04.24-.16.45-.41.42z" fill="#ffca08"/><path d="m75.92 50.96-7.98-.99c-.27-.03-.41-.33-.28-.55l2.33-3.81c.08-.12.22-.2.36-.18-1.2 2.62-.22 4.62 5.98 5.11.04.24-.16.45-.41.42z" fill="#fa9c1e"/></g></g><path d="m91.42 69.48-3.89-2.24-.5 4.67z" fill="#f99c38"/><path d="m18.46 47.85 1.9 31.6 48.04 10.36v-33.41z" fill="#bc465a"/><path d="m18.46 47.85 1.9 31.6 48.04 10.36v-33.41z" fill="#bc465a"/><path d="m64.32 84.73c-2.64-.37-37.53-8.38-41.37-9.14v-22.9h5.23c1.58 12.12 11.9 19.44 24.48 21.48 2.93.47 11.78 1.34 11.78 1.34.15 3.08.54 6.21-.12 9.22z" fill="#a53d4c"/><path d="m24.28 76.03v-24.82l-5.68-.86v25.68z" fill="#ffb255"/><path d="m94.23 43.22-5.59 33.88-20.24 12.72v-33.42z" fill="#bc465a"/><path d="m88.36 68.11c-5.57-1.05-10.71-5.79-11.16-11.55-1.9 1.17-6.12 2.7-6.12 2.7s-1.68 16.61-.48 24.89c5.3-3.18 11.25-4.76 16.9-7.15-.01-.11.85-8.76.86-8.89z" fill="#a53d4c"/><path d="m72.64 57.33-4.74 1.79-.01 27.61 4.75-2.2z" fill="#f99c38"/><path d="m62.72 57.44v29.28l5.68 1.08v-29.5z" fill="#ffb255"/><path d="m89.32 73 4.21-25.53c-1.32.52-2.67.97-4.02 1.39l-2.84 26.42c.83-.82 1.71-1.59 2.65-2.28z" fill="#f99c38"/><path d="m90.18 76.97 1.24-7.49-23.08 12.77v7.57z" fill="#f99c38"/><path d="m94.23 43.22-25.83 13.18-51.33-8.97 9.25-.49 41.74 7.15 18.73-9.56z" fill="#f99c38"/><path d="m68.34 64.02.32-7.74-51.6-8.84.37 6.41z" fill="#ffb255"/><path d="m68.4 89.81-.06-6.29-50.08-10.97.39 6.64z" fill="#ffb255"/><path d="m95.02 49.69.84-7.38-27.2 13.97-.32 7.74z" fill="#f99c38"/><path d="m94.18 43.36-8.79-3.31-15.49-10.6-38.99-5.24-7.91-3.31 6.88-.3 41.73 5.65z" fill="#f99c38"/></g></g><g><g><path d="m41.39 44.62-11.15 3.86-5.82-5.53 11.12-3.04c.14-.04.29-.05.43-.03l4.1.57 1.54 3.66c.1.2-.01.44-.22.51z" fill="#ffca08"/><path d="m40.08 40.46-8.41 3.34c-.73.3-1.18 1.01-1.13 1.79.06.81.08 1.63.01 2.46-.48-1.11-1.69-4.08-1.69-4.08-1.3-.16-2.96-.53-4.29-1.03 1.64-.19 3.23-.12 4.81.09.22.03.43.02.65-.03z" fill="#fa9c1e"/><path d="m30.15 48.48-7.98-.99c-.27-.03-.41-.33-.28-.55l2.33-3.81c.08-.12.22-.2.36-.18l4.97.62c.16.02.3.15.32.31l.69 4.18c.04.24-.16.45-.41.42z" fill="#ffca08"/><path d="m30.15 48.47-7.98-.99c-.27-.03-.41-.33-.28-.55l2.33-3.81c.08-.12.22-.2.36-.18-1.2 2.62-.22 4.62 5.98 5.11.04.24-.16.45-.41.42z" fill="#fa9c1e"/></g></g><g><g><path d="m50.32 45.96-11.15 3.86-5.82-5.53 11.12-3.04c.14-.04.29-.05.43-.03l4.1.57 1.54 3.66c.09.2-.01.44-.22.51z" fill="#ffca08"/><path d="m49.01 41.79-8.41 3.34c-.73.3-1.18 1.01-1.13 1.79.06.81.08 1.63.01 2.46-.48-1.11-1.69-4.08-1.69-4.08-1.3-.16-2.96-.53-4.29-1.03 1.64-.19 3.23-.12 4.81.09.22.03.43.02.65-.03z" fill="#fa9c1e"/><path d="m39.07 49.81-7.98-.99c-.27-.03-.41-.33-.28-.55l2.33-3.81c.08-.12.22-.2.36-.18l4.97.62c.16.02.3.15.32.31l.69 4.18c.04.24-.16.45-.41.42z" fill="#ffca08"/><path d="m39.07 49.81-7.98-.99c-.27-.03-.41-.33-.28-.55l2.33-3.81c.08-.12.22-.2.36-.18-1.2 2.62-.22 4.62 5.98 5.11.04.24-.15.45-.41.42z" fill="#fa9c1e"/></g></g><g><g><path d="m47.37 40.46-11.15 3.86-5.82-5.52 11.12-3.04c.14-.04.29-.05.43-.03l4.1.57 1.54 3.66c.09.2-.01.43-.22.5z" fill="#ffca08"/><path d="m46.06 36.3-8.41 3.34c-.73.3-1.18 1.01-1.13 1.79.06.81.08 1.63.01 2.46-.48-1.11-1.69-4.08-1.69-4.08-1.3-.16-2.96-.53-4.29-1.03 1.64-.19 3.23-.12 4.81.09.22.03.43.02.65-.03z" fill="#fa9c1e"/><path d="m36.13 44.32-7.98-.99c-.27-.03-.41-.33-.28-.55l2.33-3.81c.08-.12.22-.2.36-.18l4.97.62c.16.02.3.15.32.31l.69 4.18c.03.24-.16.45-.41.42z" fill="#ffca08"/><path d="m36.13 44.31-7.98-.99c-.27-.03-.41-.33-.28-.55l2.33-3.81c.08-.12.22-.2.36-.18-1.2 2.62-.22 4.62 5.98 5.11.04.24-.16.45-.41.42z" fill="#fa9c1e"/></g></g><g><g><path d="m59.86 47.48-11.15 3.86-5.82-5.53 11.12-3.04c.14-.04.29-.05.43-.03l4.1.57 1.54 3.66c.09.2-.01.44-.22.51z" fill="#ffca08"/><path d="m58.55 43.32-8.41 3.34c-.73.3-1.18 1.01-1.13 1.79.06.81.08 1.63.01 2.46-.48-1.11-1.69-4.08-1.69-4.08-1.3-.16-2.96-.53-4.29-1.03 1.64-.19 3.23-.12 4.81.09.22.03.43.02.65-.03z" fill="#fa9c1e"/><path d="m48.61 51.34-7.98-.99c-.27-.03-.41-.33-.28-.55l2.33-3.81c.08-.12.22-.2.36-.18l4.97.62c.16.02.3.15.32.31l.69 4.18c.04.24-.15.45-.41.42z" fill="#ffca08"/><path d="m48.62 51.33-7.98-.99c-.27-.03-.41-.33-.28-.55l2.33-3.81c.08-.12.22-.2.36-.18-1.2 2.62-.22 4.62 5.98 5.11.04.24-.16.45-.41.42z" fill="#fa9c1e"/></g></g><g><g><path d="m68.8 49.3-11.15 3.86-5.82-5.53 11.12-3.04c.14-.04.29-.05.43-.03l4.1.57 1.54 3.66c.1.2-.01.43-.22.51z" fill="#ffca08"/><path d="m67.5 45.13-8.41 3.34c-.73.3-1.18 1.01-1.13 1.79.06.81.08 1.63.01 2.46-.48-1.11-1.69-4.08-1.69-4.08-1.3-.16-2.96-.53-4.29-1.03 1.64-.19 3.23-.12 4.81.09.22.03.43.02.65-.03z" fill="#fa9c1e"/><path d="m57.56 53.15-7.98-.99c-.27-.03-.41-.33-.28-.55l2.33-3.81c.08-.12.22-.2.36-.18l4.97.62c.16.02.3.15.32.31l.69 4.18c.04.24-.16.45-.41.42z" fill="#ffca08"/><path d="m57.56 53.15-7.98-.99c-.27-.03-.41-.33-.28-.55l2.33-3.81c.08-.12.22-.2.36-.18-1.2 2.62-.22 4.62 5.98 5.11.04.24-.16.45-.41.42z" fill="#fa9c1e"/></g></g><g><g><path d="m59.45 41.65-11.15 3.86-5.82-5.53 11.12-3.04c.14-.04.29-.05.43-.03l4.1.57 1.54 3.66c.1.2-.01.44-.22.51z" fill="#ffca08"/><path d="m58.15 37.48-8.41 3.34c-.73.3-1.18 1.01-1.13 1.79.06.81.08 1.63.01 2.46-.48-1.1-1.69-4.07-1.69-4.07-1.3-.16-2.96-.53-4.29-1.03 1.64-.19 3.23-.12 4.81.09.22.03.43.02.65-.03z" fill="#fa9c1e"/><path d="m48.21 45.5-7.98-.99c-.27-.03-.41-.33-.28-.55l2.33-3.81c.08-.12.22-.2.36-.18l4.97.62c.16.02.3.15.32.31l.69 4.18c.04.25-.16.46-.41.42z" fill="#ffca08"/><path d="m48.21 45.5-7.98-.99c-.27-.03-.41-.33-.28-.55l2.33-3.81c.08-.12.22-.2.36-.18-1.2 2.62-.22 4.62 5.98 5.11.04.24-.16.45-.41.42z" fill="#fa9c1e"/></g></g><g><g><path d="m71.11 42.75-11.15 3.86-5.82-5.53 11.12-3.04c.14-.04.29-.05.43-.03l4.1.57 1.54 3.66c.1.2-.01.44-.22.51z" fill="#ffca08"/><path d="m69.81 38.58-8.41 3.34c-.73.3-1.18 1.01-1.13 1.79.06.81.08 1.63.01 2.46-.48-1.11-1.69-4.08-1.69-4.08-1.3-.16-2.96-.53-4.29-1.03 1.64-.19 3.23-.12 4.81.09.22.03.43.02.65-.03z" fill="#fa9c1e"/><path d="m59.87 46.61-7.98-.99c-.27-.03-.41-.33-.28-.55l2.33-3.81c.08-.12.22-.2.36-.18l4.97.62c.16.02.3.15.32.31l.69 4.18c.04.24-.16.45-.41.42z" fill="#ffca08"/><path d="m59.87 46.6-7.98-.99c-.27-.03-.41-.33-.28-.55l2.33-3.81c.08-.12.22-.2.36-.18-1.2 2.62-.22 4.62 5.98 5.11.04.24-.16.45-.41.42z" fill="#fa9c1e"/></g></g><g><g><path d="m78.31 50.54-11.15 3.86-5.82-5.53 11.12-3.04c.14-.04.29-.05.43-.03l4.1.57 1.54 3.66c.09.2-.01.44-.22.51z" fill="#ffca08"/><path d="m77 46.37-8.41 3.34c-.73.3-1.18 1.01-1.13 1.79.06.81.08 1.63.01 2.46-.48-1.11-1.69-4.08-1.69-4.08-1.3-.16-2.96-.53-4.29-1.03 1.64-.19 3.23-.12 4.81.09.22.03.43.02.65-.03z" fill="#fa9c1e"/><path d="m67.06 54.39-7.98-.99c-.27-.03-.41-.33-.28-.55l2.33-3.81c.08-.12.22-.2.36-.18l4.97.62c.16.02.3.15.32.31l.69 4.18c.04.25-.16.46-.41.42z" fill="#ffca08"/><path d="m67.07 54.39-7.98-.99c-.27-.03-.41-.33-.28-.55l2.33-3.81c.08-.12.22-.2.36-.18-1.2 2.62-.22 4.62 5.98 5.11.04.24-.16.45-.41.42z" fill="#fa9c1e"/></g></g><g><g><path d="m81.06 43.81-11.15 3.86-5.82-5.53 11.12-3.04c.14-.04.29-.05.43-.03l4.1.57 1.54 3.66c.09.21-.01.44-.22.51z" fill="#ffca08"/><path d="m79.75 39.65-8.41 3.34c-.73.3-1.18 1.01-1.13 1.79.06.81.08 1.63.01 2.46-.48-1.11-1.69-4.08-1.69-4.08-1.3-.16-2.96-.53-4.29-1.03 1.64-.19 3.23-.12 4.81.09.22.03.43.02.65-.03z" fill="#fa9c1e"/><path d="m69.81 47.67-7.98-.99c-.27-.03-.41-.33-.28-.55l2.33-3.81c.08-.12.22-.2.36-.18l4.97.62c.16.02.3.15.32.31l.69 4.18c.04.24-.16.45-.41.42z" fill="#ffca08"/><path d="m69.82 47.66-7.98-.99c-.27-.03-.41-.33-.28-.55l2.33-3.81c.08-.12.22-.2.36-.18-1.2 2.62-.22 4.62 5.98 5.11.04.24-.16.45-.41.42z" fill="#fa9c1e"/></g></g><g><g><g><path d="m85.92 87.5-11.15 3.86-5.82-5.53 11.12-3.04c.14-.04.29-.05.43-.03l4.1.57 1.54 3.66c.1.21-.01.44-.22.51z" fill="#ffca08"/><path d="m84.61 83.34-8.41 3.34c-.73.3-1.18 1.01-1.13 1.79.06.81.08 1.63.01 2.46-.48-1.11-1.69-4.08-1.69-4.08-1.3-.16-2.96-.53-4.29-1.03 1.64-.19 3.23-.12 4.81.09.22.03.43.02.65-.03z" fill="#fa9c1e"/><path d="m74.68 91.36-7.98-.99c-.27-.03-.41-.33-.28-.55l2.33-3.82c.08-.12.22-.2.36-.18l4.97.62c.16.02.3.15.32.31l.69 4.18c.04.25-.16.46-.41.43z" fill="#ffca08"/><path d="m74.68 91.35-7.98-.99c-.27-.03-.41-.33-.28-.55l2.33-3.81c.08-.12.22-.2.36-.18-1.2 2.62-.22 4.62 5.98 5.11.04.24-.16.45-.41.42z" fill="#fa9c1e"/></g></g><g><g><path d="m88.66 81.88-11.15 3.86-5.82-5.53 11.12-3.04c.14-.04.29-.05.43-.03l4.1.57 1.54 3.66c.09.2-.01.44-.22.51z" fill="#ffca08"/><path d="m87.35 77.71-8.41 3.34c-.73.3-1.18 1.01-1.13 1.79.06.81.08 1.63.01 2.46-.48-1.11-1.69-4.08-1.69-4.08-1.3-.16-2.96-.53-4.29-1.03 1.64-.19 3.23-.12 4.81.09.22.03.43.02.65-.03z" fill="#fa9c1e"/><path d="m77.41 85.73-7.98-.99c-.27-.03-.41-.33-.28-.55l2.33-3.81c.08-.12.22-.2.36-.18l4.97.62c.16.02.3.15.32.31l.69 4.18c.04.24-.16.45-.41.42z" fill="#ffca08"/><path d="m77.42 85.73-7.98-.99c-.27-.03-.41-.33-.28-.55l2.33-3.81c.08-.12.22-.2.36-.18-1.2 2.62-.22 4.62 5.98 5.11.03.24-.16.45-.41.42z" fill="#fa9c1e"/></g></g><g><g><path d="m95.82 87.17-11.15 3.86-5.82-5.53 11.12-3.04c.14-.04.29-.05.43-.03l4.1.57 1.54 3.66c.1.2-.01.44-.22.51z" fill="#ffca08"/><path d="m94.52 83-8.41 3.34c-.73.3-1.18 1.01-1.13 1.79.06.81.08 1.63.01 2.46-.48-1.11-1.69-4.08-1.69-4.08-1.3-.16-2.96-.53-4.29-1.03 1.64-.19 3.23-.12 4.81.09.22.03.43.02.65-.03z" fill="#fa9c1e"/><path d="m84.58 91.02-7.98-.99c-.27-.03-.41-.33-.28-.55l2.33-3.81c.08-.12.22-.2.36-.18l4.97.62c.16.02.3.15.32.31l.69 4.18c.04.25-.16.45-.41.42z" fill="#ffca08"/><path d="m84.58 91.02-7.98-.99c-.27-.03-.41-.33-.28-.55l2.33-3.81c.08-.12.22-.2.36-.18-1.2 2.62-.22 4.62 5.98 5.11.04.24-.16.45-.41.42z" fill="#fa9c1e"/></g></g><g><g><path d="m99.74 81.88-11.15 3.86-5.82-5.53 11.12-3.04c.14-.04.29-.05.43-.03l4.1.57 1.54 3.66c.1.2-.01.44-.22.51z" fill="#ffca08"/><path d="m98.43 77.71-8.41 3.34c-.73.3-1.18 1.01-1.13 1.79.06.81.08 1.63.01 2.46-.48-1.11-1.69-4.08-1.69-4.08-1.3-.16-2.96-.53-4.29-1.03 1.64-.19 3.23-.12 4.81.09.22.03.43.02.65-.03z" fill="#fa9c1e"/><path d="m88.5 85.73-7.98-.99c-.27-.03-.41-.33-.28-.55l2.33-3.81c.08-.12.22-.2.36-.18l4.97.62c.16.02.3.15.32.31l.69 4.18c.04.24-.16.45-.41.42z" fill="#ffca08"/><path d="m88.5 85.73-7.98-.99c-.27-.03-.41-.33-.28-.55l2.33-3.81c.08-.12.22-.2.36-.18-1.2 2.62-.22 4.62 5.98 5.11.04.24-.16.45-.41.42z" fill="#fa9c1e"/></g></g><g><g><path d="m94.64 76.66-11.15 3.86-5.82-5.53 11.12-3.04c.14-.04.29-.05.43-.03l4.1.57 1.54 3.66c.1.2-.01.43-.22.51z" fill="#ffca08"/><path d="m93.33 72.49-8.41 3.34c-.73.3-1.18 1.01-1.13 1.79.06.81.08 1.63.01 2.46-.48-1.11-1.69-4.08-1.69-4.08-1.3-.16-2.96-.53-4.29-1.03 1.64-.19 3.23-.12 4.81.09.22.03.43.02.65-.03z" fill="#fa9c1e"/><path d="m83.4 80.51-7.98-.99c-.27-.03-.41-.33-.28-.55l2.33-3.81c.08-.12.22-.2.36-.18l4.97.62c.16.02.3.15.32.31l.69 4.18c.04.24-.16.45-.41.42z" fill="#ffca08"/><path d="m83.4 80.5-7.98-.99c-.27-.03-.41-.33-.28-.55l2.33-3.81c.08-.12.22-.2.36-.18-1.2 2.62-.22 4.62 5.98 5.11.04.25-.16.46-.41.42z" fill="#fa9c1e"/></g></g></g><g fill="#fff"><g><path d="m34.95 38.77c-.83 0-1.51.68-1.51 1.51 0-.42-.17-.79-.44-1.06s-.65-.45-1.07-.45c.42 0 .8-.17 1.07-.45.27-.27.44-.65.44-1.06 0 .42.17.79.44 1.06s.65.45 1.07.45z"/><path d="m32.49 47.26c-.83 0-1.51.68-1.51 1.51 0-.42-.17-.79-.44-1.06s-.65-.45-1.07-.45c.42 0 .8-.17 1.07-.45.27-.27.44-.65.44-1.06 0 .42.17.79.44 1.06.27.28.65.45 1.07.45z"/><path d="m44.95 44.92c-1.43 0-2.59 1.16-2.59 2.59 0-.71-.29-1.36-.75-1.82-.47-.47-1.12-.76-1.83-.76.71 0 1.37-.3 1.83-.76.47-.47.75-1.11.75-1.82 0 .71.29 1.36.75 1.82.48.46 1.13.75 1.84.75z"/></g><g><path d="m56.57 36.54c-.83 0-1.51.68-1.51 1.51 0-.42-.17-.79-.44-1.06s-.65-.45-1.07-.45c.42 0 .8-.17 1.07-.45.27-.27.44-.65.44-1.06 0 .42.17.79.44 1.06.28.27.66.45 1.07.45z"/><path d="m54.12 45.03c-.83 0-1.51.68-1.51 1.51 0-.42-.17-.79-.44-1.06s-.65-.45-1.07-.45c.42 0 .8-.17 1.07-.45.27-.27.44-.65.44-1.06 0 .42.17.79.44 1.06.27.28.65.45 1.07.45z"/><path d="m66.58 42.69c-1.43 0-2.59 1.16-2.59 2.59 0-.71-.29-1.36-.75-1.82-.47-.47-1.12-.76-1.83-.76.71 0 1.37-.3 1.83-.76.47-.47.75-1.11.75-1.82 0 .71.29 1.36.75 1.82.48.46 1.13.75 1.84.75z"/></g><g><path d="m75.43 46.68c-.83 0-1.51.68-1.51 1.51 0-.42-.17-.79-.44-1.06s-.65-.45-1.07-.45c.42 0 .8-.17 1.07-.45.27-.27.44-.65.44-1.06 0 .42.17.79.44 1.06.27.28.65.45 1.07.45z"/><path d="m65.29 53.33c-1.43 0-2.59 1.16-2.59 2.59 0-.71-.29-1.36-.75-1.82-.47-.47-1.12-.76-1.83-.76.71 0 1.37-.3 1.83-.76.47-.47.75-1.11.75-1.82 0 .71.29 1.36.75 1.82.48.46 1.13.75 1.84.75z"/></g><g><path d="m81.88 74.37c-.83 0-1.51.68-1.51 1.51 0-.42-.17-.79-.44-1.06s-.65-.45-1.07-.45c.42 0 .8-.17 1.07-.45.27-.27.44-.65.44-1.06 0 .42.17.79.44 1.06.28.27.66.45 1.07.45z"/><path d="m77.51 84.62c-.83 0-1.51.68-1.51 1.51 0-.42-.17-.79-.44-1.06s-.65-.45-1.07-.45c.42 0 .8-.17 1.07-.45.27-.27.44-.65.44-1.06 0 .42.17.79.44 1.06.28.28.66.45 1.07.45z"/><path d="m89.73 80.52c-1.43 0-2.59 1.16-2.59 2.59 0-.71-.29-1.36-.75-1.82-.47-.47-1.12-.76-1.83-.76.71 0 1.37-.3 1.83-.76.47-.47.75-1.11.75-1.82 0 .71.29 1.36.75 1.82.47.46 1.13.75 1.84.75z"/></g><g><path d="m11.91 75.91c-.83 0-1.51.68-1.51 1.51 0-.42-.17-.79-.44-1.06s-.65-.45-1.07-.45c.42 0 .8-.17 1.07-.45.27-.27.44-.65.44-1.06 0 .42.17.79.44 1.06.28.28.66.45 1.07.45z"/><path d="m21.44 69.54c-1.43 0-2.59 1.16-2.59 2.59 0-.71-.29-1.36-.75-1.82-.47-.47-1.12-.76-1.83-.76.71 0 1.37-.3 1.83-.76.47-.47.75-1.11.75-1.82 0 .71.29 1.36.75 1.82.47.46 1.13.75 1.84.75z"/></g></g><g><g><g><path d="m34.15 86.01-4.58 2.58-.19-3.47 3.74-2.08 1.21 2.36c.11.22.03.49-.18.61z" fill="#fa9c1e"/><path d="m29.38 85.12.19 3.47-7.4-3.04c-.23-.09-.34-.35-.26-.59l.73-2z" fill="#fa9c1e"/><path d="m33.12 83.03-3.74 2.08-6.74-2.16 2.87-1.37c.09-.04.19-.06.29-.04z" fill="#ffca08"/></g><g><path d="m42.47 84.17-4.67 2.63-.19-3.47 3.74-2.08 1.26 2.46c.08.16.02.37-.14.46z" fill="#fa9c1e"/><path d="m37.61 83.33.19 3.47-7.5-3.08c-.17-.07-.26-.26-.19-.44l.77-2.1z" fill="#fa9c1e"/><path d="m41.35 81.25-3.74 2.08-6.74-2.16 2.91-1.39c.07-.03.14-.04.22-.03z" fill="#ffca08"/></g><g><path d="m33.18 81.81-4.65 2.61-.19-3.47 3.74-2.08 1.24 2.43c.1.19.03.41-.14.51z" fill="#fa9c1e"/><path d="m28.34 80.96.19 3.47-7.47-3.07c-.19-.08-.28-.29-.21-.48l.76-2.07z" fill="#fa9c1e"/><path d="m32.09 78.87-3.74 2.08-6.75-2.15 2.89-1.39c.07-.04.16-.05.24-.03z" fill="#ffca08"/></g></g><g><g><path d="m47.7 88.51-4.58 2.58-.19-3.47 3.74-2.08 1.21 2.36c.12.22.04.49-.18.61z" fill="#fa9c1e"/><path d="m42.94 87.62.19 3.47-7.4-3.04c-.23-.09-.34-.35-.26-.59l.73-2z" fill="#fa9c1e"/><path d="m46.68 85.54-3.74 2.08-6.74-2.16 2.87-1.37c.09-.04.19-.06.29-.04z" fill="#ffca08"/></g><g><path d="m56.03 86.67-4.68 2.63-.19-3.47 3.74-2.08 1.26 2.46c.09.17.03.37-.13.46z" fill="#fa9c1e"/><path d="m51.17 85.83.19 3.47-7.5-3.08c-.17-.07-.26-.26-.19-.44l.77-2.1z" fill="#fa9c1e"/><path d="m54.91 83.75-3.74 2.08-6.74-2.16 2.91-1.39c.07-.03.14-.04.22-.03z" fill="#ffca08"/></g><g><path d="m46.73 84.31-4.65 2.61-.19-3.47 3.74-2.08 1.24 2.43c.11.19.04.41-.14.51z" fill="#fa9c1e"/><path d="m41.9 83.46.19 3.47-7.47-3.07c-.19-.08-.28-.29-.21-.48l.76-2.07z" fill="#fa9c1e"/><path d="m45.64 81.38-3.74 2.08-6.74-2.16 2.89-1.39c.07-.04.16-.05.24-.03z" fill="#ffca08"/></g></g></g><g><g fill="#fff"><path d="m26.68 83.65c-.42 0-.75.34-.75.75 0-.21-.08-.4-.22-.53-.14-.14-.33-.22-.54-.22.21 0 .4-.09.54-.22.14-.14.22-.32.22-.53 0 .21.08.4.22.53.13.14.32.22.53.22z"/><path d="m31.45 80.46c-.71 0-1.3.58-1.3 1.3 0-.36-.14-.68-.38-.91-.23-.23-.56-.38-.92-.38.36 0 .68-.15.92-.38.23-.23.38-.56.38-.91 0 .36.14.68.38.91.23.23.56.37.92.37z"/></g><g fill="#fff"><path d="m41.49 86.88c.51 0 .92.41.92.92 0-.25.1-.48.27-.65s.4-.27.65-.27c-.25 0-.48-.1-.65-.27s-.27-.39-.27-.65c0 .25-.1.48-.27.65-.16.17-.39.27-.65.27z"/><path d="m35.69 83c.87 0 1.58.71 1.58 1.58 0-.43.17-.83.46-1.11.29-.29.68-.47 1.12-.47-.43 0-.83-.18-1.12-.47s-.46-.68-.46-1.11c0 .43-.17.83-.46 1.11-.29.29-.69.47-1.12.47z"/></g><g><path d="m48.71 84.88c.87 0 1.58.71 1.58 1.58 0-.43.17-.83.46-1.11.29-.29.68-.47 1.12-.47-.43 0-.83-.18-1.12-.47s-.46-.68-.46-1.11c0 .43-.17.83-.46 1.11-.29.29-.68.47-1.12.47z" fill="#fff"/></g></g></g></svg>